<svg width="216" height="35" viewBox="0 0 216 35" fill="none" xmlns="http://www.w3.org/2000/svg">
<path d="M9.9375 7C8.18044 7 6.49535 7.70238 5.25292 8.95262C4.01049 10.2029 3.3125 11.8986 3.3125 13.6667V15.3333H1.65625C1.21699 15.3333 0.795712 15.5089 0.485104 15.8215C0.174497 16.1341 0 16.558 0 17C0 17.442 0.174497 17.866 0.485104 18.1785C0.795712 18.4911 1.21699 18.6667 1.65625 18.6667H3.3125V20.3333C3.3125 22.1014 4.01049 23.7971 5.25292 25.0474C6.49535 26.2976 8.18044 27 9.9375 27H13.25C15.8856 27 18.4132 25.9464 20.2769 24.0711C22.1405 22.1957 23.1875 19.6522 23.1875 17C23.1875 16.1159 23.5365 15.2681 24.1577 14.643C24.7789 14.0179 25.6215 13.6667 26.5 13.6667C27.3785 13.6667 28.2211 14.0179 28.8423 14.643C29.4635 15.2681 29.8125 16.1159 29.8125 17C29.8125 19.6522 30.8595 22.1957 32.7231 24.0711C34.5868 25.9464 37.1144 27 39.75 27H43.0625C44.8196 27 46.5047 26.2976 47.7471 25.0474C48.9895 23.7971 49.6875 22.1014 49.6875 20.3333V18.6667H51.3438C51.783 18.6667 52.2043 18.4911 52.5149 18.1785C52.8255 17.866 53 17.442 53 17C53 16.558 52.8255 16.1341 52.5149 15.8215C52.2043 15.5089 51.783 15.3333 51.3438 15.3333H49.6875V13.6667C49.6875 11.8986 48.9895 10.2029 47.7471 8.95262C46.5047 7.70238 44.8196 7 43.0625 7H36.4375C35.0643 6.99949 33.7248 7.4284 32.6044 8.22741C31.484 9.02642 30.638 10.156 30.1835 11.46C29.0944 10.724 27.8119 10.3317 26.5 10.3333C25.1881 10.3317 23.9056 10.724 22.8165 11.46C22.362 10.156 21.516 9.02642 20.3956 8.22741C19.2752 7.4284 17.9357 6.99949 16.5625 7H9.9375ZM9.9375 10.3333H13.0546C13.9291 10.3333 14.2073 11.52 13.4256 11.9133L11.9117 12.6733C10.6304 13.3183 9.59132 14.3639 8.95037 15.6533L8.19512 17.1767C7.80425 17.9633 6.625 17.6833 6.625 16.8V13.6667C6.625 12.7826 6.97399 11.9348 7.59521 11.3096C8.21642 10.6845 9.05897 10.3333 9.9375 10.3333Z" fill="#030712"/>
<path d="M80.7734 17H78.2148V8.66016L73.7129 16.5801C73.6022 16.7819 73.446 16.9349 73.2441 17.0391C73.0488 17.1432 72.8372 17.1953 72.6094 17.1953C72.388 17.1953 72.1797 17.1432 71.9844 17.0391C71.7956 16.9349 71.6458 16.7819 71.5352 16.5801L67.0137 8.66016V17H64.4746V4.08008C64.4746 3.78711 64.5592 3.52669 64.7285 3.29883C64.9043 3.07096 65.1322 2.91797 65.4121 2.83984C65.5488 2.80729 65.6855 2.79753 65.8223 2.81055C65.959 2.81706 66.0892 2.84635 66.2129 2.89844C66.3431 2.94401 66.4603 3.01237 66.5645 3.10352C66.6686 3.18815 66.7565 3.29232 66.8281 3.41602L72.6094 13.4648L78.3906 3.41602C78.5404 3.16862 78.7454 2.99284 79.0059 2.88867C79.2728 2.78451 79.5495 2.76823 79.8359 2.83984C80.1094 2.91797 80.334 3.07096 80.5098 3.29883C80.6855 3.52669 80.7734 3.78711 80.7734 4.08008V17ZM92.6289 8.98242H86.916C86.571 8.98242 86.3105 9.07031 86.1348 9.24609C85.959 9.41536 85.8711 9.66602 85.8711 9.99805V17H83.332V9.99805C83.332 9.56185 83.3874 9.17122 83.498 8.82617C83.6087 8.48112 83.7552 8.17839 83.9375 7.91797C84.1263 7.65104 84.3411 7.42643 84.582 7.24414C84.8229 7.05534 85.0736 6.90234 85.334 6.78516C85.6009 6.66797 85.8678 6.58333 86.1348 6.53125C86.4082 6.47266 86.6621 6.44336 86.8965 6.44336H92.6289V8.98242ZM103.498 8.71875H112.414V2.99609H114.953V17H112.414V11.2773H103.498V17H100.959V2.99609H103.498V8.71875ZM128.488 13.5039C128.488 13.8555 128.426 14.2363 128.303 14.6465C128.179 15.0501 127.977 15.4277 127.697 15.7793C127.424 16.1243 127.062 16.4141 126.613 16.6484C126.171 16.8828 125.63 17 124.992 17H120.412C120.061 17 119.68 16.9382 119.27 16.8145C118.866 16.6908 118.488 16.4922 118.137 16.2188C117.792 15.9388 117.502 15.5775 117.268 15.1348C117.033 14.6855 116.916 14.1419 116.916 13.5039C116.916 13.1523 116.978 12.7715 117.102 12.3613C117.225 11.9512 117.424 11.5736 117.697 11.2285C117.977 10.877 118.339 10.584 118.781 10.3496C119.23 10.1152 119.774 9.99805 120.412 9.99805H124.992V12.4199H120.412C120.067 12.4199 119.8 12.5273 119.611 12.7422C119.423 12.9505 119.328 13.2109 119.328 13.5234C119.328 13.8555 119.436 14.1159 119.65 14.3047C119.872 14.487 120.132 14.5781 120.432 14.5781H124.992C125.337 14.5781 125.604 14.474 125.793 14.2656C125.982 14.0573 126.076 13.7969 126.076 13.4844V9.93945C126.076 9.60742 125.972 9.34375 125.764 9.14844C125.562 8.95312 125.305 8.85547 124.992 8.85547H119.416V6.44336H124.992C125.344 6.44336 125.721 6.50521 126.125 6.62891C126.535 6.7526 126.913 6.95443 127.258 7.23438C127.609 7.50781 127.902 7.86914 128.137 8.31836C128.371 8.76107 128.488 9.30143 128.488 9.93945V13.5039ZM142.355 17H139.816V11.1406C139.816 10.8086 139.758 10.5124 139.641 10.252C139.53 9.98503 139.377 9.75716 139.182 9.56836C138.986 9.37956 138.755 9.23633 138.488 9.13867C138.228 9.03451 137.945 8.98242 137.639 8.98242H133.195V17H130.656V7.70312C130.656 7.52734 130.689 7.36458 130.754 7.21484C130.819 7.05859 130.91 6.92513 131.027 6.81445C131.145 6.69727 131.281 6.60612 131.438 6.54102C131.594 6.47591 131.76 6.44336 131.936 6.44336H137.658C137.977 6.44336 138.312 6.47917 138.664 6.55078C139.022 6.6224 139.374 6.73958 139.719 6.90234C140.07 7.05859 140.402 7.26042 140.715 7.50781C141.034 7.7487 141.314 8.04492 141.555 8.39648C141.802 8.74154 141.997 9.14193 142.141 9.59766C142.284 10.0534 142.355 10.5677 142.355 11.1406V17ZM156.164 13.4355C156.164 13.8717 156.109 14.2656 155.998 14.6172C155.887 14.9622 155.741 15.2682 155.559 15.5352C155.376 15.7956 155.165 16.0202 154.924 16.209C154.683 16.3913 154.429 16.541 154.162 16.6582C153.902 16.7754 153.635 16.8633 153.361 16.9219C153.094 16.974 152.84 17 152.6 17H148.02C147.583 17 147.193 16.9447 146.848 16.834C146.503 16.7233 146.197 16.5768 145.93 16.3945C145.669 16.2057 145.445 15.9909 145.256 15.75C145.074 15.5091 144.924 15.2585 144.807 14.998C144.689 14.7311 144.602 14.4642 144.543 14.1973C144.491 13.9238 144.465 13.6699 144.465 13.4355V9.99805C144.465 9.34701 144.582 8.79688 144.816 8.34766C145.057 7.89193 145.354 7.52409 145.705 7.24414C146.063 6.95768 146.451 6.7526 146.867 6.62891C147.284 6.50521 147.668 6.44336 148.02 6.44336H152.6V8.98242H148.039C147.701 8.98242 147.443 9.07031 147.268 9.24609C147.092 9.41536 147.004 9.66602 147.004 9.99805V13.416C147.004 13.7611 147.089 14.0215 147.258 14.1973C147.434 14.373 147.688 14.4609 148.02 14.4609H152.6C152.945 14.4609 153.202 14.373 153.371 14.1973C153.54 14.0215 153.625 13.7676 153.625 13.4355V1.98047H156.164V13.4355ZM168.791 13.4355C168.791 13.8717 168.736 14.2656 168.625 14.6172C168.514 14.9622 168.368 15.2682 168.186 15.5352C168.003 15.7956 167.792 16.0202 167.551 16.209C167.31 16.3913 167.056 16.541 166.789 16.6582C166.529 16.7754 166.262 16.8633 165.988 16.9219C165.721 16.974 165.467 17 165.227 17H158.352V14.4609H165.207C165.552 14.4609 165.812 14.373 165.988 14.1973C166.164 14.0215 166.252 13.7676 166.252 13.4355C166.219 12.7585 165.878 12.4199 165.227 12.4199H161.291C160.731 12.4199 160.256 12.3223 159.865 12.127C159.475 11.9316 159.156 11.6875 158.908 11.3945C158.667 11.1016 158.492 10.7858 158.381 10.4473C158.277 10.1087 158.225 9.79297 158.225 9.5C158.225 8.93359 158.326 8.45833 158.527 8.07422C158.729 7.68359 158.983 7.36784 159.289 7.12695C159.595 6.88607 159.927 6.71354 160.285 6.60938C160.643 6.4987 160.979 6.44336 161.291 6.44336H167.531V8.98242H161.311C161.18 8.98242 161.076 8.9987 160.998 9.03125C160.926 9.05729 160.871 9.09635 160.832 9.14844C160.799 9.19401 160.78 9.24609 160.773 9.30469C160.767 9.35677 160.764 9.40885 160.764 9.46094C160.77 9.5651 160.79 9.64648 160.822 9.70508C160.855 9.76367 160.894 9.80599 160.939 9.83203C160.992 9.85807 161.047 9.87435 161.105 9.88086C161.171 9.88086 161.232 9.88086 161.291 9.88086H165.227C165.878 9.88086 166.431 9.99805 166.887 10.2324C167.342 10.4668 167.71 10.763 167.99 11.1211C168.27 11.4727 168.472 11.8568 168.596 12.2734C168.726 12.6901 168.791 13.0775 168.791 13.4355ZM182.062 13.4355C182.062 13.8717 182.007 14.2656 181.896 14.6172C181.786 14.9622 181.639 15.2682 181.457 15.5352C181.275 15.7956 181.063 16.0202 180.822 16.209C180.581 16.3913 180.327 16.541 180.061 16.6582C179.8 16.7754 179.533 16.8633 179.26 16.9219C178.993 16.974 178.739 17 178.498 17H173.918C173.566 17 173.182 16.9382 172.766 16.8145C172.349 16.6908 171.962 16.4889 171.604 16.209C171.252 15.9225 170.956 15.5547 170.715 15.1055C170.48 14.6497 170.363 14.0931 170.363 13.4355V9.99805C170.363 9.34701 170.48 8.79688 170.715 8.34766C170.956 7.89193 171.252 7.52409 171.604 7.24414C171.962 6.95768 172.349 6.7526 172.766 6.62891C173.182 6.50521 173.566 6.44336 173.918 6.44336H178.498C179.149 6.44336 179.702 6.56055 180.158 6.79492C180.614 7.0293 180.982 7.32552 181.262 7.68359C181.542 8.03516 181.743 8.41927 181.867 8.83594C181.997 9.2526 182.062 9.63997 182.062 9.99805V13.4355ZM179.523 10.0176C179.523 9.66602 179.436 9.4056 179.26 9.23633C179.084 9.06706 178.83 8.98242 178.498 8.98242H173.938C173.599 8.98242 173.342 9.07031 173.166 9.24609C172.99 9.41536 172.902 9.66602 172.902 9.99805V13.4355C172.902 13.7676 172.99 14.0215 173.166 14.1973C173.342 14.373 173.599 14.4609 173.938 14.4609H178.498C178.843 14.4609 179.1 14.373 179.27 14.1973C179.439 14.0215 179.523 13.7676 179.523 13.4355V10.0176ZM193.654 17H191.115V9.99805C191.115 9.66602 191.027 9.41536 190.852 9.24609C190.676 9.07031 190.415 8.98242 190.07 8.98242H186.77V17H184.23V7.70312C184.23 7.52734 184.263 7.36458 184.328 7.21484C184.393 7.05859 184.484 6.92513 184.602 6.81445C184.719 6.69727 184.855 6.60612 185.012 6.54102C185.168 6.47591 185.334 6.44336 185.51 6.44336H190.09C190.441 6.44336 190.819 6.50521 191.223 6.62891C191.626 6.7526 192.01 6.95117 192.375 7.22461V6.44336H195.812C196.053 6.44336 196.307 6.47266 196.574 6.53125C196.841 6.58333 197.105 6.66797 197.365 6.78516C197.632 6.90234 197.886 7.05534 198.127 7.24414C198.368 7.42643 198.579 7.65104 198.762 7.91797C198.944 8.17839 199.09 8.48112 199.201 8.82617C199.312 9.17122 199.367 9.56185 199.367 9.99805V17H196.828V9.99805C196.828 9.66602 196.743 9.41536 196.574 9.24609C196.411 9.07031 196.158 8.98242 195.812 8.98242H193.527C193.612 9.29492 193.654 9.63346 193.654 9.99805V17ZM213.068 9.93945C213.068 10.291 213.007 10.6719 212.883 11.082C212.759 11.4857 212.557 11.8633 212.277 12.2148C212.004 12.5599 211.643 12.8496 211.193 13.084C210.751 13.3184 210.21 13.4355 209.572 13.4355H204.992V11.0234H209.572C209.917 11.0234 210.184 10.9193 210.373 10.7109C210.562 10.4961 210.656 10.2324 210.656 9.91992C210.656 9.58789 210.549 9.32747 210.334 9.13867C210.126 8.94987 209.872 8.85547 209.572 8.85547H204.992C204.647 8.85547 204.38 8.96289 204.191 9.17773C204.003 9.38607 203.908 9.64648 203.908 9.95898V13.5039C203.908 13.8424 204.012 14.1061 204.221 14.2949C204.436 14.4837 204.699 14.5781 205.012 14.5781H209.572V17H204.992C204.641 17 204.26 16.9382 203.85 16.8145C203.446 16.6908 203.068 16.4922 202.717 16.2188C202.372 15.9388 202.082 15.5775 201.848 15.1348C201.613 14.6855 201.496 14.1419 201.496 13.5039V9.93945C201.496 9.58789 201.558 9.21029 201.682 8.80664C201.805 8.39648 202.004 8.01888 202.277 7.67383C202.557 7.32227 202.919 7.0293 203.361 6.79492C203.811 6.56055 204.354 6.44336 204.992 6.44336H209.572C209.924 6.44336 210.301 6.50521 210.705 6.62891C211.115 6.7526 211.493 6.95443 211.838 7.23438C212.189 7.50781 212.482 7.86914 212.717 8.31836C212.951 8.76107 213.068 9.30143 213.068 9.93945Z" fill="#030712"/>
<path d="M69.8295 25.4545C69.7784 25.0227 69.571 24.6875 69.2074 24.4489C68.8438 24.2102 68.3977 24.0909 67.8693 24.0909C67.483 24.0909 67.1449 24.1534 66.8551 24.2784C66.5682 24.4034 66.3438 24.5753 66.1818 24.794C66.0227 25.0128 65.9432 25.2614 65.9432 25.5398C65.9432 25.7727 65.9986 25.973 66.1094 26.1406C66.223 26.3054 66.3679 26.4432 66.544 26.554C66.7202 26.6619 66.9048 26.7514 67.098 26.8224C67.2912 26.8906 67.4688 26.946 67.6307 26.9886L68.517 27.2273C68.7443 27.2869 68.9972 27.3693 69.2756 27.4744C69.5568 27.5795 69.8253 27.723 70.081 27.9048C70.3395 28.0838 70.5526 28.3139 70.7202 28.5952C70.8878 28.8764 70.9716 29.2216 70.9716 29.6307C70.9716 30.1023 70.848 30.5284 70.6009 30.9091C70.3565 31.2898 69.9986 31.5923 69.527 31.8168C69.0582 32.0412 68.4886 32.1534 67.8182 32.1534C67.1932 32.1534 66.652 32.0526 66.1946 31.8509C65.7401 31.6491 65.3821 31.3679 65.1207 31.0071C64.8622 30.6463 64.7159 30.2273 64.6818 29.75H65.7727C65.8011 30.0795 65.9119 30.3523 66.1051 30.5682C66.3011 30.7812 66.5483 30.9403 66.8466 31.0455C67.1477 31.1477 67.4716 31.1989 67.8182 31.1989C68.2216 31.1989 68.5838 31.1335 68.9048 31.0028C69.2259 30.8693 69.4801 30.6847 69.6676 30.4489C69.8551 30.2102 69.9489 29.9318 69.9489 29.6136C69.9489 29.3239 69.8679 29.0881 69.706 28.9062C69.544 28.7244 69.331 28.5767 69.0668 28.4631C68.8026 28.3494 68.517 28.25 68.2102 28.1648L67.1364 27.858C66.4545 27.6619 65.9148 27.3821 65.517 27.0185C65.1193 26.6548 64.9205 26.179 64.9205 25.5909C64.9205 25.1023 65.0526 24.6761 65.3168 24.3125C65.5838 23.946 65.9418 23.6619 66.3906 23.4602C66.8423 23.2557 67.3466 23.1534 67.9034 23.1534C68.4659 23.1534 68.9659 23.2543 69.4034 23.456C69.8409 23.6548 70.1875 23.9276 70.4432 24.2741C70.7017 24.6207 70.8381 25.0142 70.8523 25.4545H69.8295ZM75.4194 25.4545V26.3068H72.0273V25.4545H75.4194ZM73.016 23.8864H74.0217V30.125C74.0217 30.4091 74.0629 30.6222 74.1452 30.7642C74.2305 30.9034 74.3384 30.9972 74.4691 31.0455C74.6026 31.0909 74.7433 31.1136 74.891 31.1136C75.0018 31.1136 75.0927 31.108 75.1637 31.0966C75.2347 31.0824 75.2915 31.071 75.3342 31.0625L75.5387 31.9659C75.4705 31.9915 75.3754 32.017 75.2532 32.0426C75.131 32.071 74.9762 32.0852 74.7887 32.0852C74.5046 32.0852 74.2262 32.0241 73.9535 31.902C73.6836 31.7798 73.4592 31.5938 73.2802 31.3438C73.104 31.0938 73.016 30.7784 73.016 30.3977V23.8864ZM78.8583 32.1534C78.4435 32.1534 78.0671 32.0753 77.729 31.919C77.391 31.7599 77.1225 31.5312 76.9237 31.233C76.7248 30.9318 76.6254 30.5682 76.6254 30.142C76.6254 29.767 76.6992 29.4631 76.8469 29.2301C76.9947 28.9943 77.1921 28.8097 77.4393 28.6761C77.6864 28.5426 77.9592 28.4432 78.2575 28.3778C78.5586 28.3097 78.8612 28.2557 79.1651 28.2159C79.5629 28.1648 79.8853 28.1264 80.1325 28.1009C80.3825 28.0724 80.5643 28.0256 80.6779 27.9602C80.7944 27.8949 80.8526 27.7812 80.8526 27.6193V27.5852C80.8526 27.1648 80.7376 26.8381 80.5075 26.6051C80.2802 26.3722 79.935 26.2557 79.4719 26.2557C78.9918 26.2557 78.6154 26.3608 78.3427 26.571C78.07 26.7812 77.8782 27.0057 77.7674 27.2443L76.8129 26.9034C76.9833 26.5057 77.2106 26.196 77.4947 25.9744C77.7816 25.75 78.0941 25.5937 78.4322 25.5057C78.7731 25.4148 79.1083 25.3693 79.4379 25.3693C79.6481 25.3693 79.8896 25.3949 80.1623 25.446C80.4379 25.4943 80.7035 25.5952 80.9592 25.7486C81.2177 25.902 81.4322 26.1335 81.6026 26.4432C81.7731 26.7528 81.8583 27.1676 81.8583 27.6875V32H80.8526V31.1136H80.8015C80.7333 31.2557 80.6197 31.4077 80.4606 31.5696C80.3015 31.7315 80.0898 31.8693 79.8256 31.983C79.5614 32.0966 79.239 32.1534 78.8583 32.1534ZM79.0117 31.25C79.4094 31.25 79.7447 31.1719 80.0174 31.0156C80.293 30.8594 80.5004 30.6577 80.6396 30.4105C80.7816 30.1634 80.8526 29.9034 80.8526 29.6307V28.7102C80.81 28.7614 80.7163 28.8082 80.5714 28.8509C80.4293 28.8906 80.2646 28.9261 80.0771 28.9574C79.8924 28.9858 79.712 29.0114 79.5359 29.0341C79.3626 29.054 79.2219 29.071 79.114 29.0852C78.8526 29.1193 78.6083 29.1747 78.381 29.2514C78.1566 29.3253 77.9748 29.4375 77.8356 29.5881C77.6992 29.7358 77.631 29.9375 77.631 30.1932C77.631 30.5426 77.7603 30.8068 78.0188 30.9858C78.2802 31.1619 78.6112 31.25 79.0117 31.25ZM84.1072 34.4545C83.9368 34.4545 83.7848 34.4403 83.6513 34.4119C83.5178 34.3864 83.4254 34.3608 83.3743 34.3352L83.63 33.4489C83.8743 33.5114 84.0902 33.5341 84.2777 33.517C84.4652 33.5 84.6314 33.4162 84.7763 33.2656C84.924 33.1179 85.0589 32.8778 85.1811 32.5455L85.3686 32.0341L82.9482 25.4545H84.0391L85.8459 30.6705H85.9141L87.7209 25.4545H88.8118L86.0334 32.9545C85.9084 33.2926 85.7536 33.5724 85.5689 33.794C85.3842 34.0185 85.1697 34.1847 84.9254 34.2926C84.6839 34.4006 84.4112 34.4545 84.1072 34.4545ZM98.1506 26.9205L97.2472 27.1761C97.1903 27.0256 97.1065 26.8793 96.9957 26.7372C96.8878 26.5923 96.7401 26.473 96.5526 26.3793C96.3651 26.2855 96.125 26.2386 95.8324 26.2386C95.4318 26.2386 95.098 26.331 94.831 26.5156C94.5668 26.6974 94.4347 26.929 94.4347 27.2102C94.4347 27.4602 94.5256 27.6577 94.7074 27.8026C94.8892 27.9474 95.1733 28.0682 95.5597 28.1648L96.5312 28.4034C97.1165 28.5455 97.5526 28.7628 97.8395 29.0554C98.1264 29.3452 98.2699 29.7187 98.2699 30.1761C98.2699 30.5511 98.1619 30.8864 97.946 31.1818C97.733 31.4773 97.4347 31.7102 97.0511 31.8807C96.6676 32.0511 96.2216 32.1364 95.7131 32.1364C95.0455 32.1364 94.4929 31.9915 94.0554 31.7017C93.6179 31.4119 93.3409 30.9886 93.2244 30.4318L94.179 30.1932C94.2699 30.5455 94.4418 30.8097 94.6946 30.9858C94.9503 31.1619 95.2841 31.25 95.696 31.25C96.1648 31.25 96.5369 31.1506 96.8125 30.9517C97.0909 30.75 97.2301 30.5085 97.2301 30.2273C97.2301 30 97.1506 29.8097 96.9915 29.6562C96.8324 29.5 96.5881 29.3835 96.2585 29.3068L95.1676 29.0511C94.5682 28.9091 94.1278 28.6889 93.8466 28.3906C93.5682 28.0895 93.429 27.7131 93.429 27.2614C93.429 26.892 93.5327 26.5653 93.7401 26.2812C93.9503 25.9972 94.2358 25.7741 94.5966 25.6122C94.9602 25.4503 95.3722 25.3693 95.8324 25.3693C96.4801 25.3693 96.9886 25.5114 97.358 25.7955C97.7301 26.0795 97.9943 26.4545 98.1506 26.9205ZM102.63 25.4545V26.3068H99.2383V25.4545H102.63ZM100.227 23.8864H101.233V30.125C101.233 30.4091 101.274 30.6222 101.356 30.7642C101.441 30.9034 101.549 30.9972 101.68 31.0455C101.814 31.0909 101.954 31.1136 102.102 31.1136C102.213 31.1136 102.304 31.108 102.375 31.0966C102.446 31.0824 102.502 31.071 102.545 31.0625L102.75 31.9659C102.681 31.9915 102.586 32.017 102.464 32.0426C102.342 32.071 102.187 32.0852 102 32.0852C101.716 32.0852 101.437 32.0241 101.164 31.902C100.895 31.7798 100.67 31.5938 100.491 31.3438C100.315 31.0938 100.227 30.7784 100.227 30.3977V23.8864ZM104.791 34.4545C104.62 34.4545 104.468 34.4403 104.335 34.4119C104.201 34.3864 104.109 34.3608 104.058 34.3352L104.314 33.4489C104.558 33.5114 104.774 33.5341 104.961 33.517C105.149 33.5 105.315 33.4162 105.46 33.2656C105.608 33.1179 105.743 32.8778 105.865 32.5455L106.052 32.0341L103.632 25.4545H104.723L106.529 30.6705H106.598L108.404 25.4545H109.495L106.717 32.9545C106.592 33.2926 106.437 33.5724 106.252 33.794C106.068 34.0185 105.853 34.1847 105.609 34.2926C105.368 34.4006 105.095 34.4545 104.791 34.4545ZM111.828 23.2727V32H110.823V23.2727H111.828ZM113.67 32V25.4545H114.676V32H113.67ZM114.182 24.3636C113.986 24.3636 113.817 24.2969 113.675 24.1634C113.536 24.0298 113.466 23.8693 113.466 23.6818C113.466 23.4943 113.536 23.3338 113.675 23.2003C113.817 23.0668 113.986 23 114.182 23C114.378 23 114.545 23.0668 114.685 23.2003C114.827 23.3338 114.898 23.4943 114.898 23.6818C114.898 23.8693 114.827 24.0298 114.685 24.1634C114.545 24.2969 114.378 24.3636 114.182 24.3636ZM121.154 26.9205L120.251 27.1761C120.194 27.0256 120.11 26.8793 120 26.7372C119.892 26.5923 119.744 26.473 119.556 26.3793C119.369 26.2855 119.129 26.2386 118.836 26.2386C118.436 26.2386 118.102 26.331 117.835 26.5156C117.571 26.6974 117.439 26.929 117.439 27.2102C117.439 27.4602 117.529 27.6577 117.711 27.8026C117.893 27.9474 118.177 28.0682 118.564 28.1648L119.535 28.4034C120.12 28.5455 120.556 28.7628 120.843 29.0554C121.13 29.3452 121.274 29.7187 121.274 30.1761C121.274 30.5511 121.166 30.8864 120.95 31.1818C120.737 31.4773 120.439 31.7102 120.055 31.8807C119.672 32.0511 119.225 32.1364 118.717 32.1364C118.049 32.1364 117.497 31.9915 117.059 31.7017C116.622 31.4119 116.345 30.9886 116.228 30.4318L117.183 30.1932C117.274 30.5455 117.446 30.8097 117.699 30.9858C117.954 31.1619 118.288 31.25 118.7 31.25C119.169 31.25 119.541 31.1506 119.816 30.9517C120.095 30.75 120.234 30.5085 120.234 30.2273C120.234 30 120.154 29.8097 119.995 29.6562C119.836 29.5 119.592 29.3835 119.262 29.3068L118.172 29.0511C117.572 28.9091 117.132 28.6889 116.85 28.3906C116.572 28.0895 116.433 27.7131 116.433 27.2614C116.433 26.892 116.537 26.5653 116.744 26.2812C116.954 25.9972 117.24 25.7741 117.6 25.6122C117.964 25.4503 118.376 25.3693 118.836 25.3693C119.484 25.3693 119.993 25.5114 120.362 25.7955C120.734 26.0795 120.998 26.4545 121.154 26.9205ZM123.793 28.0625V32H122.788V23.2727H123.793V26.4773H123.879C124.032 26.1392 124.262 25.8707 124.569 25.6719C124.879 25.4702 125.29 25.3693 125.805 25.3693C126.251 25.3693 126.641 25.4588 126.977 25.6378C127.312 25.8139 127.572 26.0852 127.756 26.4517C127.944 26.8153 128.038 27.2784 128.038 27.8409V32H127.032V27.9091C127.032 27.3892 126.897 26.9872 126.627 26.7031C126.36 26.4162 125.989 26.2727 125.515 26.2727C125.185 26.2727 124.89 26.3423 124.629 26.4815C124.37 26.6207 124.165 26.8239 124.015 27.0909C123.867 27.358 123.793 27.6818 123.793 28.0625ZM135.724 32.1193C135.15 32.1193 134.656 32.0142 134.241 31.804C133.826 31.5937 133.507 31.3054 133.282 30.9389C133.058 30.5724 132.946 30.1534 132.946 29.6818C132.946 29.3182 133.022 28.9957 133.176 28.7145C133.332 28.4304 133.547 28.1676 133.819 27.9261C134.095 27.6818 134.412 27.4375 134.77 27.1932L136.031 26.2557C136.278 26.0937 136.475 25.9205 136.623 25.7358C136.774 25.5511 136.849 25.3097 136.849 25.0114C136.849 24.7898 136.751 24.5753 136.555 24.3679C136.362 24.1605 136.108 24.0568 135.792 24.0568C135.571 24.0568 135.375 24.1136 135.204 24.2273C135.037 24.3381 134.904 24.4801 134.808 24.6534C134.714 24.8239 134.667 25 134.667 25.1818C134.667 25.3864 134.723 25.5938 134.833 25.804C134.947 26.0114 135.091 26.2244 135.264 26.4432C135.44 26.6591 135.622 26.8807 135.809 27.108L139.815 32H138.605L135.298 28.0114C134.991 27.642 134.713 27.3068 134.463 27.0057C134.213 26.7045 134.014 26.4077 133.866 26.1151C133.718 25.8224 133.645 25.5057 133.645 25.1648C133.645 24.7727 133.731 24.429 133.904 24.1335C134.081 23.8352 134.326 23.6037 134.642 23.4389C134.96 23.2713 135.332 23.1875 135.758 23.1875C136.196 23.1875 136.572 23.2727 136.887 23.4432C137.203 23.6108 137.446 23.8338 137.616 24.1122C137.787 24.3878 137.872 24.6875 137.872 25.0114C137.872 25.429 137.768 25.7912 137.561 26.098C137.353 26.4048 137.071 26.6903 136.713 26.9545L134.974 28.25C134.582 28.5398 134.316 28.821 134.177 29.0938C134.038 29.3665 133.968 29.5625 133.968 29.6818C133.968 29.9545 134.039 30.2088 134.181 30.4446C134.324 30.6804 134.524 30.8707 134.782 31.0156C135.041 31.1605 135.343 31.233 135.69 31.233C136.02 31.233 136.341 31.1634 136.653 31.0241C136.966 30.8821 137.248 30.6776 137.501 30.4105C137.757 30.1435 137.958 29.8224 138.106 29.4474C138.257 29.0724 138.332 28.6506 138.332 28.1818H139.304C139.304 28.7614 139.237 29.2344 139.103 29.6009C138.97 29.9673 138.819 30.2543 138.652 30.4616C138.484 30.669 138.349 30.8239 138.247 30.9261C138.213 30.9687 138.181 31.0114 138.153 31.054C138.125 31.0966 138.093 31.1392 138.059 31.1818C137.778 31.4972 137.423 31.733 136.994 31.8892C136.565 32.0426 136.142 32.1193 135.724 32.1193ZM145.309 28.0625V32H144.303V23.2727H145.309V26.4773H145.394C145.548 26.1392 145.778 25.8707 146.085 25.6719C146.394 25.4702 146.806 25.3693 147.32 25.3693C147.766 25.3693 148.157 25.4588 148.492 25.6378C148.827 25.8139 149.087 26.0852 149.272 26.4517C149.46 26.8153 149.553 27.2784 149.553 27.8409V32H148.548V27.9091C148.548 27.3892 148.413 26.9872 148.143 26.7031C147.876 26.4162 147.505 26.2727 147.031 26.2727C146.701 26.2727 146.406 26.3423 146.144 26.4815C145.886 26.6207 145.681 26.8239 145.531 27.0909C145.383 27.358 145.309 27.6818 145.309 28.0625ZM153.319 32.1534C152.904 32.1534 152.528 32.0753 152.19 31.919C151.852 31.7599 151.583 31.5312 151.385 31.233C151.186 30.9318 151.086 30.5682 151.086 30.142C151.086 29.767 151.16 29.4631 151.308 29.2301C151.456 28.9943 151.653 28.8097 151.9 28.6761C152.147 28.5426 152.42 28.4432 152.718 28.3778C153.02 28.3097 153.322 28.2557 153.626 28.2159C154.024 28.1648 154.346 28.1264 154.593 28.1009C154.843 28.0724 155.025 28.0256 155.139 27.9602C155.255 27.8949 155.314 27.7812 155.314 27.6193V27.5852C155.314 27.1648 155.199 26.8381 154.968 26.6051C154.741 26.3722 154.396 26.2557 153.933 26.2557C153.453 26.2557 153.076 26.3608 152.804 26.571C152.531 26.7812 152.339 27.0057 152.228 27.2443L151.274 26.9034C151.444 26.5057 151.672 26.196 151.956 25.9744C152.243 25.75 152.555 25.5937 152.893 25.5057C153.234 25.4148 153.569 25.3693 153.899 25.3693C154.109 25.3693 154.35 25.3949 154.623 25.446C154.899 25.4943 155.164 25.5952 155.42 25.7486C155.679 25.902 155.893 26.1335 156.064 26.4432C156.234 26.7528 156.319 27.1676 156.319 27.6875V32H155.314V31.1136H155.262C155.194 31.2557 155.081 31.4077 154.922 31.5696C154.762 31.7315 154.551 31.8693 154.287 31.983C154.022 32.0966 153.7 32.1534 153.319 32.1534ZM153.473 31.25C153.87 31.25 154.206 31.1719 154.478 31.0156C154.754 30.8594 154.961 30.6577 155.1 30.4105C155.243 30.1634 155.314 29.9034 155.314 29.6307V28.7102C155.271 28.7614 155.177 28.8082 155.032 28.8509C154.89 28.8906 154.725 28.9261 154.538 28.9574C154.353 28.9858 154.173 29.0114 153.997 29.0341C153.824 29.054 153.683 29.071 153.575 29.0852C153.314 29.1193 153.069 29.1747 152.842 29.2514C152.618 29.3253 152.436 29.4375 152.297 29.5881C152.16 29.7358 152.092 29.9375 152.092 30.1932C152.092 30.5426 152.221 30.8068 152.48 30.9858C152.741 31.1619 153.072 31.25 153.473 31.25ZM159.161 28.0625V32H158.155V25.4545H159.126V26.4773H159.212C159.365 26.1449 159.598 25.8778 159.911 25.6761C160.223 25.4716 160.626 25.3693 161.121 25.3693C161.564 25.3693 161.952 25.4602 162.284 25.642C162.616 25.821 162.875 26.0938 163.06 26.4602C163.244 26.8239 163.337 27.2841 163.337 27.8409V32H162.331V27.9091C162.331 27.3949 162.197 26.9943 161.93 26.7074C161.663 26.4176 161.297 26.2727 160.831 26.2727C160.51 26.2727 160.223 26.3423 159.97 26.4815C159.72 26.6207 159.523 26.8239 159.378 27.0909C159.233 27.358 159.161 27.6818 159.161 28.0625ZM167.646 32.1364C167.1 32.1364 166.619 31.9986 166.201 31.723C165.784 31.4446 165.457 31.0526 165.221 30.5469C164.985 30.0384 164.868 29.4375 164.868 28.7443C164.868 28.0568 164.985 27.4602 165.221 26.9545C165.457 26.4489 165.785 26.0582 166.206 25.7827C166.626 25.5071 167.112 25.3693 167.663 25.3693C168.089 25.3693 168.426 25.4403 168.673 25.5824C168.923 25.7216 169.113 25.8807 169.244 26.0597C169.377 26.2358 169.481 26.3807 169.555 26.4943H169.64V23.2727H170.646V32H169.674V30.9943H169.555C169.481 31.1136 169.376 31.2642 169.24 31.446C169.103 31.625 168.909 31.7855 168.656 31.9276C168.403 32.0668 168.066 32.1364 167.646 32.1364ZM167.782 31.233C168.186 31.233 168.527 31.1278 168.805 30.9176C169.083 30.7045 169.295 30.4105 169.44 30.0355C169.585 29.6577 169.657 29.2216 169.657 28.7273C169.657 28.2386 169.586 27.8111 169.444 27.4446C169.302 27.0753 169.092 26.7884 168.814 26.5838C168.535 26.3764 168.191 26.2727 167.782 26.2727C167.356 26.2727 167.001 26.3821 166.717 26.6009C166.436 26.8168 166.224 27.1108 166.082 27.483C165.943 27.8523 165.873 28.267 165.873 28.7273C165.873 29.1932 165.944 29.6165 166.086 29.9972C166.231 30.375 166.444 30.6761 166.725 30.9006C167.01 31.1222 167.362 31.233 167.782 31.233ZM177.264 26.9205L176.36 27.1761C176.304 27.0256 176.22 26.8793 176.109 26.7372C176.001 26.5923 175.853 26.473 175.666 26.3793C175.478 26.2855 175.238 26.2386 174.946 26.2386C174.545 26.2386 174.211 26.331 173.944 26.5156C173.68 26.6974 173.548 26.929 173.548 27.2102C173.548 27.4602 173.639 27.6577 173.821 27.8026C174.002 27.9474 174.287 28.0682 174.673 28.1648L175.645 28.4034C176.23 28.5455 176.666 28.7628 176.953 29.0554C177.24 29.3452 177.383 29.7187 177.383 30.1761C177.383 30.5511 177.275 30.8864 177.059 31.1818C176.846 31.4773 176.548 31.7102 176.164 31.8807C175.781 32.0511 175.335 32.1364 174.826 32.1364C174.159 32.1364 173.606 31.9915 173.169 31.7017C172.731 31.4119 172.454 30.9886 172.338 30.4318L173.292 30.1932C173.383 30.5455 173.555 30.8097 173.808 30.9858C174.064 31.1619 174.397 31.25 174.809 31.25C175.278 31.25 175.65 31.1506 175.926 30.9517C176.204 30.75 176.343 30.5085 176.343 30.2273C176.343 30 176.264 29.8097 176.105 29.6562C175.946 29.5 175.701 29.3835 175.372 29.3068L174.281 29.0511C173.681 28.9091 173.241 28.6889 172.96 28.3906C172.681 28.0895 172.542 27.7131 172.542 27.2614C172.542 26.892 172.646 26.5653 172.853 26.2812C173.064 25.9972 173.349 25.7741 173.71 25.6122C174.074 25.4503 174.485 25.3693 174.946 25.3693C175.593 25.3693 176.102 25.5114 176.471 25.7955C176.843 26.0795 177.108 26.4545 177.264 26.9205ZM181.556 32.1364C180.965 32.1364 180.447 31.9957 180.001 31.7145C179.558 31.4332 179.211 31.0398 178.961 30.5341C178.714 30.0284 178.59 29.4375 178.59 28.7614C178.59 28.0795 178.714 27.4844 178.961 26.9759C179.211 26.4673 179.558 26.0724 180.001 25.7912C180.447 25.5099 180.965 25.3693 181.556 25.3693C182.147 25.3693 182.664 25.5099 183.107 25.7912C183.553 26.0724 183.9 26.4673 184.147 26.9759C184.397 27.4844 184.522 28.0795 184.522 28.7614C184.522 29.4375 184.397 30.0284 184.147 30.5341C183.9 31.0398 183.553 31.4332 183.107 31.7145C182.664 31.9957 182.147 32.1364 181.556 32.1364ZM181.556 31.233C182.005 31.233 182.374 31.1179 182.664 30.8878C182.954 30.6577 183.168 30.3551 183.308 29.9801C183.447 29.6051 183.516 29.1989 183.516 28.7614C183.516 28.3239 183.447 27.9162 183.308 27.5384C183.168 27.1605 182.954 26.8551 182.664 26.6222C182.374 26.3892 182.005 26.2727 181.556 26.2727C181.107 26.2727 180.738 26.3892 180.448 26.6222C180.158 26.8551 179.944 27.1605 179.805 27.5384C179.665 27.9162 179.596 28.3239 179.596 28.7614C179.596 29.1989 179.665 29.6051 179.805 29.9801C179.944 30.3551 180.158 30.6577 180.448 30.8878C180.738 31.1179 181.107 31.233 181.556 31.233ZM186.057 32V25.4545H187.029V26.4773H187.114C187.25 26.1278 187.471 25.8565 187.775 25.6634C188.078 25.4673 188.444 25.3693 188.87 25.3693C189.301 25.3693 189.661 25.4673 189.948 25.6634C190.238 25.8565 190.463 26.1278 190.625 26.4773H190.694C190.861 26.1392 191.113 25.8707 191.448 25.6719C191.783 25.4702 192.185 25.3693 192.654 25.3693C193.239 25.3693 193.718 25.5526 194.09 25.919C194.462 26.2827 194.648 26.8494 194.648 27.6193V32H193.642V27.6193C193.642 27.1364 193.51 26.7912 193.246 26.5838C192.982 26.3764 192.671 26.2727 192.313 26.2727C191.853 26.2727 191.496 26.4119 191.243 26.6903C190.99 26.9659 190.864 27.3153 190.864 27.7386V32H189.841V27.517C189.841 27.1449 189.721 26.8452 189.479 26.6179C189.238 26.3878 188.926 26.2727 188.546 26.2727C188.284 26.2727 188.04 26.3423 187.813 26.4815C187.588 26.6207 187.407 26.8139 187.267 27.0611C187.131 27.3054 187.063 27.5881 187.063 27.9091V32H186.057ZM199.231 32.1364C198.6 32.1364 198.056 31.9972 197.599 31.7188C197.145 31.4375 196.794 31.0455 196.547 30.5426C196.302 30.0369 196.18 29.4489 196.18 28.7784C196.18 28.108 196.302 27.517 196.547 27.0057C196.794 26.4915 197.137 26.0909 197.578 25.804C198.021 25.5142 198.538 25.3693 199.129 25.3693C199.47 25.3693 199.806 25.4261 200.139 25.5398C200.471 25.6534 200.774 25.8381 201.047 26.0938C201.319 26.3466 201.537 26.6818 201.699 27.0994C201.86 27.517 201.941 28.0312 201.941 28.642V29.0682H196.896V28.1989H200.919C200.919 27.8295 200.845 27.5 200.697 27.2102C200.552 26.9205 200.345 26.6918 200.075 26.5241C199.808 26.3565 199.493 26.2727 199.129 26.2727C198.728 26.2727 198.382 26.3722 198.089 26.571C197.799 26.767 197.576 27.0227 197.42 27.3381C197.264 27.6534 197.186 27.9915 197.186 28.3523V28.9318C197.186 29.4261 197.271 29.8452 197.441 30.1889C197.615 30.5298 197.855 30.7898 198.162 30.9688C198.468 31.1449 198.825 31.233 199.231 31.233C199.495 31.233 199.734 31.196 199.947 31.1222C200.163 31.0455 200.349 30.9318 200.505 30.7812C200.662 30.6278 200.782 30.4375 200.868 30.2102L201.839 30.483C201.737 30.8125 201.565 31.1023 201.324 31.3523C201.082 31.5994 200.784 31.7926 200.429 31.9318C200.074 32.0682 199.674 32.1364 199.231 32.1364Z" fill="#263137"/>
</svg>
